# xmcd
#
# Track frame offsets: 
#        150
#        10180
#        22544
#        32397
#        45603
#        59724
#        76716
#        91645
#        105833
#        120315
#        139650
#        162474
#        184037
#        206341
#        227071
#        245057
#        262109
#        278063
#        296414
#        314383
#        332847
#
# Disc length: 4675 seconds
#
# Revision: 3
# Processed by: cddbd v1.5.2PL0 Copyright (c) Steve Scherf et al.
# Submitted via: ExactAudioCopy v0.99pb5
#
DISCID=0c124115
DTITLE=Bee Gees - The Best
DYEAR=2001
DGENRE=Disco
TTITLE0=Massachusets
TTITLE1=To Love Somebody
TTITLE2=New York Mining Disaster
TTITLE3=Holiday
TTITLE4=I've Gotta Get A Message To You
TTITLE5=I Can't See Nobody
TTITLE6=Words
TTITLE7=I Stated A Joke
TTITLE8=World
TTITLE9=You Should Be Dancing
TTITLE10=Tragedy
TTITLE11=Stayn' Alive
TTITLE12=Too Much Heaven
TTITLE13=Nights On Broadway
TTITLE14=Love Me
TTITLE15=Jive Talkin
TTITLE16=Night Fever
TTITLE17=How Deep Is You Love
TTITLE18=You Win Again
TTITLE19=Ordinary Days
TTITLE20=Paying The Piece Of Love
EXTD=
EXTT0=
EXTT1=
EXTT2=
EXTT3=
EXTT4=
EXTT5=
EXTT6=
EXTT7=
EXTT8=
EXTT9=
EXTT10=
EXTT11=
EXTT12=
EXTT13=
EXTT14=
EXTT15=
EXTT16=
EXTT17=
EXTT18=
EXTT19=
EXTT20=
PLAYORDER=
